# xmcd
#
# Track frame offsets:
#	150
#	22350
#	43500
#	64500
#	80700
#	103200
#	124500
#	143400
#	162900
#	182250
#	201975
#	228000
#
# Disc length: 3370 seconds
#
# Revision: 0
# Processed by: cddbd v1.5.2PL0 Copyright (c) Steve Scherf et al.
# Submitted via: audiograbber 1.83.01
#
DISCID=990d280c
DTITLE=Axel Zwingenberger - Boogie Woogie Live
DYEAR=1985
DGENRE=Boogie Woogie
TTITLE0=Boogie Woogie Be With Me
TTITLE1=Jump And Jive
TTITLE2=April Mood
TTITLE3=Blues For Sippie Wallace
TTITLE4=Sunset Special
TTITLE5=Eldorado Stomp
TTITLE6=In The Heat
TTITLE7=Make Me Call California
TTITLE8=My Style
TTITLE9=Blues On Top
TTITLE10=Boogie Du Printemps
TTITLE11=Goodnight Blues
EXTD=
EXTT0=
EXTT1=
EXTT2=
EXTT3=
EXTT4=
EXTT5=
EXTT6=
EXTT7=
EXTT8=
EXTT9=
EXTT10=
EXTT11=
PLAYORDER=
